<svg width="251" height="41" viewBox="0 0 251 41" fill="none" xmlns="http://www.w3.org/2000/svg">
<path d="M43.0498 29.4619V9.71939H45.641L52.7977 24.5674L59.9132 9.71939H62.5318V29.4482H59.8172V15.9438L53.442 29.4619H52.1396L45.7507 15.9438V29.4619H43.0498ZM72.436 29.8732C70.9644 29.8732 69.6711 29.5533 68.556 28.9135C67.4501 28.2646 66.5864 27.3643 65.9648 26.2126C65.3524 25.0518 65.0463 23.7082 65.0463 22.1819C65.0463 20.5641 65.3479 19.1611 65.9511 17.9729C66.5635 16.7847 67.4135 15.8661 68.5012 15.2171C69.5889 14.5682 70.8548 14.2437 72.2989 14.2437C73.807 14.2437 75.0912 14.5956 76.1514 15.2994C77.2117 15.994 78.0023 16.9857 78.5233 18.2745C79.0534 19.5632 79.2636 21.0942 79.1539 22.8674H76.2885V21.8254C76.2702 20.1071 75.9412 18.8366 75.3014 18.014C74.6707 17.1914 73.7065 16.7801 72.4086 16.7801C70.9736 16.7801 69.8951 17.2325 69.173 18.1374C68.4509 19.0422 68.0899 20.3493 68.0899 22.0585C68.0899 23.6854 68.4509 24.9467 69.173 25.8425C69.8951 26.729 70.937 27.1723 72.2989 27.1723C73.1946 27.1723 73.967 26.9712 74.6159 26.5691C75.274 26.1578 75.7858 25.5728 76.1514 24.8142L78.962 25.7054C78.3862 27.0307 77.5133 28.0589 76.3434 28.7901C75.1734 29.5122 73.871 29.8732 72.436 29.8732ZM67.1576 22.8674V20.6326H77.7281V22.8674H67.1576ZM91.7164 29.4619V22.1819C91.7164 21.606 91.6661 21.0165 91.5656 20.4133C91.4742 19.8009 91.2914 19.2342 91.0172 18.7132C90.7521 18.1922 90.3728 17.7718 89.8792 17.4519C89.3948 17.132 88.7596 16.972 87.9735 16.972C87.4617 16.972 86.9772 17.0589 86.5202 17.2325C86.0632 17.397 85.6611 17.6667 85.3138 18.0414C84.9756 18.4162 84.7059 18.9097 84.5049 19.5221C84.3129 20.1345 84.217 20.8794 84.217 21.7568L82.4346 21.0851C82.4346 19.7415 82.686 18.5578 83.1887 17.5341C83.6914 16.5013 84.4135 15.697 85.3549 15.1212C86.2963 14.5453 87.4343 14.2574 88.7687 14.2574C89.7924 14.2574 90.6516 14.4219 91.3462 14.751C92.0408 15.08 92.603 15.5142 93.0325 16.0535C93.4713 16.5836 93.8049 17.164 94.0334 17.7946C94.2619 18.4253 94.4173 19.0422 94.4995 19.6455C94.5818 20.2487 94.6229 20.7789 94.6229 21.2359V29.4619H91.7164ZM81.3104 29.4619V14.655H83.8742V18.9326H84.217V29.4619H81.3104ZM106.163 29.4619C105.23 29.6447 104.316 29.7224 103.421 29.695C102.525 29.6676 101.725 29.4939 101.021 29.174C100.318 28.8541 99.7875 28.3514 99.431 27.6659C99.1111 27.0535 98.9374 26.432 98.91 25.8013C98.8917 25.1615 98.8826 24.4395 98.8826 23.6351V10.542H101.762V23.498C101.762 24.0921 101.766 24.6085 101.775 25.0473C101.794 25.486 101.89 25.8562 102.063 26.1578C102.392 26.7245 102.913 27.0489 103.626 27.1312C104.348 27.2043 105.194 27.1723 106.163 27.0352V29.4619ZM96.0446 16.9583V14.655H106.163V16.9583H96.0446ZM114.541 29.8732C113.06 29.8732 111.776 29.5396 110.688 28.8724C109.601 28.2052 108.76 27.2866 108.166 26.1167C107.581 24.9376 107.288 23.5803 107.288 22.0448C107.288 20.5001 107.59 19.1428 108.193 17.9729C108.796 16.7938 109.642 15.8798 110.73 15.2308C111.817 14.5728 113.088 14.2437 114.541 14.2437C116.022 14.2437 117.306 14.5773 118.393 15.2446C119.481 15.9118 120.322 16.8304 120.916 18.0003C121.51 19.1702 121.807 20.5184 121.807 22.0448C121.807 23.5894 121.506 24.9513 120.902 26.1304C120.308 27.3003 119.467 28.2189 118.38 28.8861C117.292 29.5442 116.012 29.8732 114.541 29.8732ZM114.541 27.1723C115.958 27.1723 117.013 26.697 117.708 25.7465C118.412 24.7868 118.764 23.5529 118.764 22.0448C118.764 20.5001 118.407 19.2662 117.694 18.343C116.99 17.4107 115.939 16.9446 114.541 16.9446C113.581 16.9446 112.791 17.164 112.169 17.6027C111.548 18.0323 111.086 18.6309 110.784 19.3987C110.483 20.1573 110.332 21.0394 110.332 22.0448C110.332 23.5986 110.688 24.8416 111.401 25.7739C112.114 26.7062 113.161 27.1723 114.541 27.1723ZM124.316 29.4619V14.655H126.866V18.2471L126.51 17.7809C126.692 17.3056 126.93 16.8715 127.222 16.4785C127.515 16.0763 127.853 15.7473 128.237 15.4913C128.612 15.2171 129.028 15.0069 129.485 14.8607C129.951 14.7053 130.426 14.6139 130.911 14.5865C131.395 14.5499 131.861 14.5728 132.309 14.655V17.3422C131.825 17.2142 131.285 17.1777 130.691 17.2325C130.106 17.2874 129.567 17.4747 129.073 17.7946C128.607 18.0963 128.237 18.4619 127.963 18.8914C127.698 19.321 127.506 19.8009 127.387 20.331C127.268 20.852 127.209 21.405 127.209 21.9899V29.4619H124.316ZM144.323 29.4619V12.4203H137.756V9.71939H153.755V12.4203H147.188V29.4619H144.323ZM159.68 29.8732C158.199 29.8732 156.915 29.5396 155.827 28.8724C154.739 28.2052 153.899 27.2866 153.304 26.1167C152.719 24.9376 152.427 23.5803 152.427 22.0448C152.427 20.5001 152.729 19.1428 153.332 17.9729C153.935 16.7938 154.781 15.8798 155.868 15.2308C156.956 14.5728 158.226 14.2437 159.68 14.2437C161.16 14.2437 162.444 14.5773 163.532 15.2446C164.62 15.9118 165.461 16.8304 166.055 18.0003C166.649 19.1702 166.946 20.5184 166.946 22.0448C166.946 23.5894 166.644 24.9513 166.041 26.1304C165.447 27.3003 164.606 28.2189 163.518 28.8861C162.431 29.5442 161.151 29.8732 159.68 29.8732ZM159.68 27.1723C161.096 27.1723 162.152 26.697 162.847 25.7465C163.55 24.7868 163.902 23.5529 163.902 22.0448C163.902 20.5001 163.546 19.2662 162.833 18.343C162.129 17.4107 161.078 16.9446 159.68 16.9446C158.72 16.9446 157.929 17.164 157.308 17.6027C156.686 18.0323 156.225 18.6309 155.923 19.3987C155.621 20.1573 155.471 21.0394 155.471 22.0448C155.471 23.5986 155.827 24.8416 156.54 25.7739C157.253 26.7062 158.299 27.1723 159.68 27.1723ZM169.441 29.4619L169.455 9.71939H172.361V21.7843L178.174 14.655H181.821L175.679 22.0585L182.452 29.4619H178.558L172.361 22.3327V29.4619H169.441ZM189.629 29.8732C188.158 29.8732 186.864 29.5533 185.749 28.9135C184.643 28.2646 183.78 27.3643 183.158 26.2126C182.546 25.0518 182.24 23.7082 182.24 22.1819C182.24 20.5641 182.541 19.1611 183.144 17.9729C183.757 16.7847 184.607 15.8661 185.695 15.2171C186.782 14.5682 188.048 14.2437 189.492 14.2437C191 14.2437 192.285 14.5956 193.345 15.2994C194.405 15.994 195.196 16.9857 195.717 18.2745C196.247 19.5632 196.457 21.0942 196.347 22.8674H193.482V21.8254C193.464 20.1071 193.135 18.8366 192.495 18.014C191.864 17.1914 190.9 16.7801 189.602 16.7801C188.167 16.7801 187.088 17.2325 186.366 18.1374C185.644 19.0422 185.283 20.3493 185.283 22.0585C185.283 23.6854 185.644 24.9467 186.366 25.8425C187.088 26.729 188.13 27.1723 189.492 27.1723C190.388 27.1723 191.16 26.9712 191.809 26.5691C192.467 26.1578 192.979 25.5728 193.345 24.8142L196.155 25.7054C195.58 27.0307 194.707 28.0589 193.537 28.7901C192.367 29.5122 191.064 29.8732 189.629 29.8732ZM184.351 22.8674V20.6326H194.921V22.8674H184.351ZM208.91 29.4619V22.1819C208.91 21.606 208.859 21.0165 208.759 20.4133C208.668 19.8009 208.485 19.2342 208.211 18.7132C207.945 18.1922 207.566 17.7718 207.073 17.4519C206.588 17.132 205.953 16.972 205.167 16.972C204.655 16.972 204.171 17.0589 203.714 17.2325C203.257 17.397 202.854 17.6667 202.507 18.0414C202.169 18.4162 201.899 18.9097 201.698 19.5221C201.506 20.1345 201.41 20.8794 201.41 21.7568L199.628 21.0851C199.628 19.7415 199.879 18.5578 200.382 17.5341C200.885 16.5013 201.607 15.697 202.548 15.1212C203.49 14.5453 204.628 14.2574 205.962 14.2574C206.986 14.2574 207.845 14.4219 208.54 14.751C209.234 15.08 209.796 15.5142 210.226 16.0535C210.665 16.5836 210.998 17.164 211.227 17.7946C211.455 18.4253 211.611 19.0422 211.693 19.6455C211.775 20.2487 211.816 20.7789 211.816 21.2359V29.4619H208.91ZM198.504 29.4619V14.655H201.068V18.9326H201.41V29.4619H198.504Z" fill="#696CFF"/>
<path d="M34.1432 13.5185C34.1432 13.1355 33.9356 12.7826 33.6007 12.5966L20.0225 5.05309C19.704 4.87614 19.3167 4.87614 18.9981 5.05309L5.41989 12.5966C5.08509 12.7826 4.87744 13.1355 4.87744 13.5185V28.5361C4.87744 28.9191 5.08509 29.272 5.41989 29.458L18.9982 37.0015C19.3167 37.1785 19.704 37.1785 20.0225 37.0015L33.6007 29.458C33.9356 29.272 34.1432 28.9191 34.1432 28.5361V13.5185ZM18.9985 8.77584C19.3169 8.59918 19.7038 8.59918 20.0221 8.77584L27.4575 12.9024C28.1813 13.3041 28.1813 14.3451 27.4573 14.7467L24.9352 16.146C24.5168 16.3782 23.9998 16.2923 23.6285 15.9904C22.5057 15.0774 21.0714 14.5238 19.5103 14.5238C17.9492 14.5238 16.515 15.0774 15.3922 15.9904C15.0209 16.2923 14.5038 16.3782 14.0854 16.146L11.5633 14.7467C10.8394 14.3451 10.8393 13.3041 11.5632 12.9024L18.9985 8.77584ZM17.8844 30.8771C17.8844 31.681 17.021 32.1893 16.318 31.7992L8.67204 27.5557C8.33701 27.3697 8.12919 27.0167 8.12919 26.6336V18.3653C8.12919 17.5611 8.99329 17.0528 9.69623 17.4435L12.4834 18.993C12.9133 19.232 13.1123 19.7365 13.0533 20.2248C13.0217 20.4862 13.0068 20.7549 13.0068 21.0273C13.0068 23.7644 14.6983 26.1152 17.1047 27.0672C17.5532 27.2446 17.8844 27.6571 17.8844 28.1394V30.8771ZM16.2586 21.0273C16.2586 19.2388 17.7219 17.7756 19.5103 17.7756C21.2988 17.7756 22.7621 19.2388 22.7621 21.0273C22.7621 22.8158 21.2988 24.2791 19.5103 24.2791C17.7219 24.2791 16.2586 22.8158 16.2586 21.0273ZM22.7026 31.7992C21.9997 32.1893 21.1362 31.681 21.1362 30.8771V28.1557C21.1362 27.6733 21.4674 27.2609 21.9159 27.0835C24.3224 26.1314 26.0138 23.7806 26.0138 21.0436C26.0138 20.7638 25.9981 20.4881 25.9647 20.2181C25.9048 19.7333 26.1039 19.2339 26.5309 18.9965L29.3244 17.4435C30.0273 17.0528 30.8914 17.5611 30.8914 18.3653V26.6336C30.8914 27.0167 30.6836 27.3697 30.3486 27.5557L22.7026 31.7992Z" fill="#696CFF"/>
</svg>
