<svg width="16" height="16" viewBox="0 0 16 16" fill="none" xmlns="http://www.w3.org/2000/svg">
<path d="M0 1.498C0 0.67 0.671 0 1.5 0H2.5C3.327 0 3.999 0.67 3.999 1.498V14.48C3.999 15.307 3.327 15.977 2.499 15.977H1.499C0.671 15.977 0 15.307 0 14.48V1.498ZM1.5 0.998C1.36739 0.998 1.24021 1.05068 1.14645 1.14445C1.05268 1.23821 1 1.36539 1 1.498V14.48C1.00026 14.6124 1.05306 14.7394 1.1468 14.8329C1.24054 14.9265 1.36756 14.979 1.5 14.979H2.5C2.63243 14.9787 2.75936 14.9259 2.85291 14.8322C2.94646 14.7385 2.999 14.6114 2.999 14.479V1.499C2.999 1.36639 2.94632 1.23921 2.85255 1.14545C2.75879 1.05168 2.63161 0.999 2.499 0.999L1.5 0.998ZM4.998 1.498C4.998 0.67 5.67 0 6.498 0H7.498C8.326 0 8.997 0.67 8.997 1.498V14.48C8.997 15.307 8.326 15.977 7.497 15.977H6.497C5.67 15.977 4.998 15.307 4.998 14.48V1.498ZM6.498 0.998C6.36539 0.998 6.23821 1.05068 6.14445 1.14445C6.05068 1.23821 5.998 1.36539 5.998 1.498V14.48C5.99826 14.6124 6.05106 14.7394 6.1448 14.8329C6.23854 14.9265 6.36556 14.979 6.498 14.979H7.498C7.63061 14.979 7.75778 14.9263 7.85155 14.8326C7.94532 14.7388 7.998 14.6116 7.998 14.479V1.499C7.998 1.36639 7.94532 1.23921 7.85155 1.14545C7.75778 1.05168 7.63061 0.999 7.498 0.999L6.498 0.998ZM13.718 4.157C13.6723 3.95904 13.5869 3.77243 13.4669 3.60848C13.3469 3.44453 13.1949 3.30666 13.02 3.20324C12.8452 3.09982 12.6511 3.03299 12.4496 3.00682C12.2482 2.98065 12.0435 2.99568 11.848 3.051L11.103 3.261C10.7392 3.3639 10.4278 3.60052 10.2312 3.92342C10.0346 4.24632 9.9674 4.6316 10.043 5.002L12.046 14.802C12.0869 15.0006 12.1677 15.1889 12.2834 15.3554C12.3992 15.5219 12.5474 15.6632 12.7193 15.7708C12.8912 15.8784 13.0832 15.95 13.2835 15.9813C13.4839 16.0126 13.6885 16.003 13.885 15.953L14.87 15.703C15.66 15.503 16.144 14.709 15.962 13.916L13.718 4.157ZM12.12 4.012C12.1852 3.99345 12.2534 3.98833 12.3206 3.99696C12.3878 4.00559 12.4525 4.02779 12.5109 4.06221C12.5693 4.09662 12.62 4.14254 12.6601 4.19717C12.7002 4.2518 12.7287 4.314 12.744 4.38L14.987 14.14C15.0158 14.2671 14.9939 14.4003 14.9259 14.5115C14.8579 14.6226 14.7492 14.7028 14.623 14.735L13.638 14.985C13.5725 15.0017 13.5044 15.0049 13.4376 14.9945C13.3709 14.9841 13.3069 14.9603 13.2496 14.9245C13.1924 14.8887 13.1429 14.8417 13.1043 14.7863C13.0657 14.7308 13.0387 14.6681 13.025 14.602L11.022 4.802C10.997 4.67864 11.0195 4.55041 11.085 4.44289C11.1504 4.33538 11.254 4.2565 11.375 4.222L12.12 4.012Z" fill="white"/>
</svg>
