<svg width="24" height="24" viewBox="0 0 24 24" fill="none" xmlns="http://www.w3.org/2000/svg">
<path d="M18.6335 3.6013C19.1109 3.6013 19.5687 3.79094 19.9063 4.12851C20.2438 4.46607 20.4335 4.92391 20.4335 5.4013V7.0765C20.4334 7.6292 20.2806 8.17114 19.992 8.6425C19.7033 9.11386 19.2901 9.49633 18.7979 9.7477L13.7723 12.3157C14.6564 12.7166 15.3765 13.4082 15.8127 14.2754C16.249 15.1426 16.3751 16.1331 16.17 17.082C15.9649 18.0308 15.441 18.8808 14.6856 19.4904C13.9301 20.1 12.9886 20.4325 12.0179 20.4325C11.0471 20.4325 10.1057 20.1 9.35019 19.4904C8.59472 18.8808 8.07084 18.0308 7.86576 17.082C7.66067 16.1331 7.78675 15.1426 8.22301 14.2754C8.65926 13.4082 9.37938 12.7166 10.2635 12.3157L5.23667 9.7477C4.7782 9.51356 4.38769 9.16538 4.10271 8.73665C3.81773 8.30792 3.64787 7.81307 3.60947 7.2997L3.60107 7.0765V5.4001C3.60107 4.92271 3.79072 4.46487 4.12828 4.12731C4.46585 3.78974 4.92368 3.6001 5.40107 3.6001L18.6335 3.6013ZM12.0179 13.1389C11.6106 13.1275 11.2051 13.1978 10.8255 13.3458C10.4458 13.4938 10.0997 13.7164 9.80754 14.0004C9.51541 14.2845 9.28319 14.6242 9.12462 14.9996C8.96605 15.3749 8.88435 15.7782 8.88435 16.1857C8.88435 16.5932 8.96605 16.9965 9.12462 17.3718C9.28319 17.7472 9.51541 18.0869 9.80754 18.371C10.0997 18.655 10.4458 18.8776 10.8255 19.0256C11.2051 19.1736 11.6106 19.2439 12.0179 19.2325C12.8156 19.2167 13.5754 18.8886 14.1339 18.3189C14.6925 17.7491 15.0054 16.983 15.0054 16.1851C15.0054 15.3872 14.6925 14.6211 14.1339 14.0513C13.5754 13.4815 12.8156 13.1535 12.0179 13.1377M15.0635 4.8001H8.96987V10.3057L11.7455 11.7241C11.83 11.7673 11.9236 11.7898 12.0185 11.7898C12.1134 11.7898 12.207 11.7673 12.2915 11.7241L15.0647 10.3057L15.0635 4.8001ZM7.76867 4.8001H5.40107C5.24194 4.8001 5.08933 4.86331 4.97681 4.97583C4.86429 5.08836 4.80107 5.24097 4.80107 5.4001V7.0753L4.80947 7.2433C4.83791 7.54491 4.94201 7.83446 5.11213 8.08513C5.28225 8.3358 5.51289 8.53948 5.78267 8.6773L7.76867 9.6925V4.8001ZM18.6335 4.8001H16.2635V9.6925L18.2519 8.6773C18.5472 8.52656 18.7951 8.29721 18.9683 8.01453C19.1415 7.73185 19.2333 7.40682 19.2335 7.0753V5.4001C19.2335 5.24097 19.1703 5.08836 19.0577 4.97583C18.9452 4.86331 18.7926 4.8001 18.6335 4.8001Z" fill="white"/>
</svg>
