<svg width="23" height="23" viewBox="0 0 23 23" fill="none" xmlns="http://www.w3.org/2000/svg">
<path fill-rule="evenodd" clip-rule="evenodd" d="M10.9662 5.16654L12.2462 3.88654C13.2766 2.85454 15.0862 2.13934 16.883 1.88174C17.6796 1.75764 18.4898 1.74686 19.2894 1.84974C19.9982 1.95534 20.4318 2.16334 20.6334 2.36654C20.8366 2.56814 21.0446 3.00174 21.1502 3.71054C21.2526 4.39374 21.2446 5.23054 21.1182 6.11694C20.8622 7.91374 20.1454 9.72334 19.1134 10.7537L11.9998 17.8689L10.1662 16.0353C10.092 15.961 10.0038 15.9019 9.90667 15.8616C9.80958 15.8213 9.70551 15.8006 9.60039 15.8005C9.49528 15.8004 9.39118 15.8211 9.29403 15.8612C9.19689 15.9014 9.10861 15.9603 9.03423 16.0345C8.88401 16.1845 8.79953 16.3881 8.79938 16.6004C8.79931 16.7055 8.81994 16.8096 8.8601 16.9067C8.90025 17.0039 8.95915 17.0922 9.03343 17.1665L11.4334 19.5665C11.5077 19.641 11.596 19.7002 11.6932 19.7405C11.7904 19.7808 11.8946 19.8016 11.9998 19.8016C12.1051 19.8016 12.2092 19.7808 12.3064 19.7405C12.4036 19.7002 12.4919 19.641 12.5662 19.5665L13.4414 18.6897L15.3134 21.8113C15.3759 21.9159 15.4613 22.0048 15.5633 22.0713C15.6653 22.1378 15.7811 22.1801 15.9019 22.1951C16.0227 22.21 16.1454 22.1972 16.2605 22.1576C16.3756 22.118 16.4802 22.0527 16.5662 21.9665L19.7662 18.7665C19.8541 18.6785 19.9202 18.5712 19.9594 18.4532C19.9986 18.3352 20.0097 18.2096 19.9918 18.0865L19.2478 12.8833L20.2462 11.8865C21.6142 10.5169 22.419 8.32654 22.7022 6.34254C22.8462 5.33934 22.8622 4.34254 22.7326 3.47214C22.6046 2.62734 22.323 1.79214 21.7662 1.23374C21.2078 0.676942 20.3726 0.393742 19.5262 0.267341C18.5733 0.141891 17.6073 0.152666 16.6574 0.299341C14.6718 0.579341 12.4798 1.38414 11.1134 2.75214L10.1166 3.75054L4.91343 3.00654C4.79035 2.9887 4.6648 2.9998 4.54676 3.03896C4.42872 3.07813 4.32144 3.14427 4.23343 3.23214L1.03343 6.43214C0.947297 6.51819 0.881941 6.62275 0.842338 6.73788C0.802735 6.853 0.78993 6.97564 0.804897 7.09647C0.819865 7.21729 0.862211 7.3331 0.928709 7.43508C0.995208 7.53706 1.0841 7.62252 1.18863 7.68494L4.30863 9.55694L3.43343 10.4321C3.35893 10.5065 3.29982 10.5947 3.25949 10.6919C3.21916 10.7891 3.1984 10.8933 3.1984 10.9985C3.1984 11.1038 3.21916 11.208 3.25949 11.3052C3.29982 11.4023 3.35893 11.4906 3.43343 11.5649L5.83343 13.9649C5.90781 14.0393 5.99611 14.0983 6.09329 14.1386C6.19048 14.1788 6.29464 14.1996 6.39983 14.1996C6.50502 14.1996 6.60918 14.1788 6.70636 14.1386C6.80354 14.0983 6.89185 14.0393 6.96623 13.9649C7.04061 13.8906 7.09961 13.8023 7.13987 13.7051C7.18012 13.6079 7.20084 13.5037 7.20084 13.3985C7.20084 13.2934 7.18012 13.1892 7.13987 13.092C7.09961 12.9948 7.04061 12.9065 6.96623 12.8321L5.13103 11.0001L6.16623 9.96654L10.9662 5.16654ZM16.1582 20.1105L14.6062 17.5233L17.8334 14.2977L18.3518 17.9169L16.1582 20.1105ZM5.47663 8.39214L8.70223 5.16654L5.08303 4.64814L2.89103 6.84014L5.47663 8.39214ZM3.76463 15.5665C3.83901 15.4923 3.89803 15.4041 3.93833 15.307C3.97862 15.2099 3.9994 15.1058 3.99947 15.0007C3.99955 14.8956 3.97892 14.7915 3.93876 14.6943C3.8986 14.5972 3.8397 14.5089 3.76543 14.4345C3.69115 14.3602 3.60295 14.3011 3.50587 14.2608C3.40878 14.2205 3.30471 14.1998 3.19959 14.1997C3.09448 14.1996 2.99038 14.2203 2.89323 14.2604C2.79609 14.3006 2.70781 14.3595 2.63343 14.4337L1.03343 16.0337C0.883421 16.184 0.799233 16.3876 0.799383 16.5999C0.799533 16.8122 0.884009 17.0157 1.03423 17.1657C1.18445 17.3158 1.3881 17.3999 1.60039 17.3998C1.81268 17.3996 2.01622 17.3152 2.16623 17.1649L3.76463 15.5665ZM6.16463 17.9665C6.24104 17.8927 6.30198 17.8045 6.34391 17.7069C6.38584 17.6093 6.40791 17.5043 6.40883 17.3981C6.40975 17.2918 6.38951 17.1865 6.34928 17.0882C6.30906 16.9899 6.24966 16.9005 6.17454 16.8254C6.09943 16.7503 6.01011 16.6909 5.91179 16.6507C5.81347 16.6105 5.70813 16.5902 5.60191 16.5911C5.49568 16.5921 5.39071 16.6141 5.2931 16.6561C5.1955 16.698 5.10722 16.7589 5.03343 16.8353L1.83343 20.0353C1.68342 20.1856 1.59923 20.3892 1.59938 20.6015C1.59953 20.8138 1.68401 21.0173 1.83423 21.1673C1.98445 21.3173 2.1881 21.4015 2.40039 21.4014C2.61268 21.4012 2.81622 21.3168 2.96623 21.1665L6.16463 17.9665ZM8.56463 20.3665C8.63901 20.2923 8.69803 20.2041 8.73833 20.107C8.77862 20.0099 8.7994 19.9058 8.79947 19.8007C8.79955 19.6956 8.77892 19.5915 8.73876 19.4943C8.6986 19.3972 8.6397 19.3089 8.56543 19.2345C8.49115 19.1602 8.40295 19.1011 8.30587 19.0608C8.20878 19.0205 8.10471 18.9998 7.99959 18.9997C7.89448 18.9996 7.79038 19.0203 7.69323 19.0604C7.59609 19.1006 7.50781 19.1595 7.43343 19.2337L5.83343 20.8337C5.68342 20.984 5.59923 21.1876 5.59938 21.3999C5.59953 21.6122 5.68401 21.8157 5.83423 21.9657C5.98445 22.1157 6.1881 22.1999 6.40039 22.1998C6.61268 22.1996 6.81622 22.1152 6.96623 21.9649L8.56463 20.3665ZM15.1998 9.79854C15.4623 9.79854 15.7221 9.74685 15.9646 9.64642C16.207 9.54599 16.4273 9.39879 16.6129 9.21322C16.7985 9.02765 16.9457 8.80735 17.0461 8.5649C17.1465 8.32244 17.1982 8.06257 17.1982 7.80014C17.1982 7.53771 17.1465 7.27784 17.0461 7.03539C16.9457 6.79293 16.7985 6.57263 16.6129 6.38706C16.4273 6.20149 16.207 6.05429 15.9646 5.95386C15.7221 5.85343 15.4623 5.80174 15.1998 5.80174C14.6698 5.80174 14.1615 6.01229 13.7867 6.38706C13.412 6.76183 13.2014 7.27013 13.2014 7.80014C13.2014 8.33015 13.412 8.83845 13.7867 9.21322C14.1615 9.588 14.6698 9.79854 15.1998 9.79854Z" fill="white"/>
</svg>
