<svg width="24" height="24" viewBox="0 0 24 24" fill="none" xmlns="http://www.w3.org/2000/svg">
<g clip-path="url(#clip0_35_346)">
<path d="M21.3335 3.3335H2.66683C2.31321 3.3335 1.97407 3.47397 1.72402 3.72402C1.47397 3.97407 1.3335 4.31321 1.3335 4.66683V19.3335C1.3335 19.6871 1.47397 20.0263 1.72402 20.2763C1.97407 20.5264 2.31321 20.6668 2.66683 20.6668H21.3335C21.6871 20.6668 22.0263 20.5264 22.2763 20.2763C22.5264 20.0263 22.6668 19.6871 22.6668 19.3335V4.66683C22.6668 4.31321 22.5264 3.97407 22.2763 3.72402C22.0263 3.47397 21.6871 3.3335 21.3335 3.3335ZM2.66683 19.3335V4.66683H21.3335V19.3335H2.66683Z" fill="white"/>
<path d="M10.4135 10.1481L6.40153 15.9788L3.7002 13.5894L4.40686 12.7908L6.20553 14.3814L10.4229 8.25342L14.9229 14.9301L19.4255 8.98008L20.2762 9.62408L14.8722 16.7634L10.4135 10.1481Z" fill="white"/>
</g>
<defs>
<clipPath id="clip0_35_346">
<rect width="24" height="24" fill="white"/>
</clipPath>
</defs>
</svg>
